# xmcd CD database file
#
# Track frame offsets:
#	150
#	11709
#	23033
#	35539
#	54080
#	59951
#	76315
#	92529
#	106743
#	117468
#	133406
#
# Disc length: 1888 seconds
#
# Revision: 0
# Processed by: cddbd v1.4PL0 Copyright (c) Steve Scherf et al.
# Submitted via: CDex 1.50
#
DISCID=8e075e0b
DTITLE=Hiatus - Hinterland
DYEAR=1900
DGENRE=Jazz
TTITLE0=Richard II
TTITLE1=La Danse des Monstres
TTITLE2=On est Demain
TTITLE3=Le Chemin de la Butte-aux-Renards
TTITLE4=Lolita I
TTITLE5=Lolita II
TTITLE6=1de Moleyne Park
TTITLE7=Richard I
TTITLE8=Richard III
TTITLE9=Canon Kabuki
TTITLE10=Fermeture
EXTD=
EXTT0=
EXTT1=
EXTT2=
EXTT3=
EXTT4=
EXTT5=
EXTT6=
EXTT7=
EXTT8=
EXTT9=
EXTT10=
PLAYORDER=
